<?xml version="1.0" encoding="utf-8"?>
<!-- Generator: Adobe Illustrator 21.1.0, SVG Export Plug-In . SVG Version: 6.00 Build 0)  -->
<svg version="1.1" id="Capa_1" xmlns="http://www.w3.org/2000/svg" xmlns:xlink="http://www.w3.org/1999/xlink" x="0px" y="0px"
	 viewBox="0 0 93 24.7" style="enable-background:new 0 0 93 24.7;" xml:space="preserve">
<style type="text/css">
	.st0{fill:#FFFFFF;}
</style>
<g>
	<path class="st0" d="M55,2c-1.1,0-2,1.4-2.6,2.7c0.1-0.1,0.2-0.1,0.3-0.2c1.7-1.1,11.6,4,5,1.6c-1.1-0.4-2.1-0.6-2.9-0.7
		c2,0.9,4.1,11.5,1.8,4.9c-1.4-4-3.2-4.4-4.4-4.1c0.4,0.1-0.7,2.1-0.7,2.1s-0.1-0.4-0.1-0.9c-0.2,0.4-0.4,0.8-0.6,1
		c-1.7,4.6-2.2,10.7-2.2,10.7s-1.4,0.8-1.5,0.7C47,15.7,49.4,10.3,51,7.3c0-0.2,0-0.4,0-0.5V6.7c-0.9-0.9-2.8-1.7-5.9,2
		c-4.5,5.4,1.5-4,3.5-4c0.7,0,1.3,0.4,1.7,0.8c-0.7-0.7-2-1.3-4.4-1.5c-7-0.6,4.1-1.1,5.2,0.6l0.1,0.1c0.7-3,4.4-3,4.4-2.9
		C55.8,1.9,55.5,2,55,2"/>
	<path class="st0" d="M40.5,1.6c1.1,0,2,1.4,2.6,2.7c-0.1-0.1-0.2-0.1-0.3-0.2c-1.7-1.1-11.6,4-5,1.6c1.1-0.4,2.1-0.6,2.9-0.7
		c-2,0.9-4.1,11.5-1.8,4.9c1.4-4,3.2-4.4,4.4-4.1c-0.3,0.1-0.5,0.4-0.5,0.7c0,0.4,0.4,0.8,0.8,0.8c0.2,0,0.3,0,0.5-0.1
		c0.1,0.4,0.1,0.7,0.1,0.7s0.1-0.4,0.1-0.9c0.2,0.4,0.4,0.8,0.6,1c1.7,4.6,2.2,10.7,2.2,10.7s1.4,0.8,1.5,0.7
		C48.4,15.4,46,10,44.4,7c0-0.2,0-0.4,0-0.5V6.4c1-1,2.9-1.8,6,1.9c4.5,5.4-1.5-4-3.5-4c-0.7,0-1.3,0.4-1.7,0.8
		c0.7-0.7,2-1.3,4.4-1.5c7-0.6-4.1-1.1-5.2,0.6l-0.1,0.1c-0.7-3-4.4-3-4.4-2.9C40,1.6,40,1.6,40.5,1.6"/>
	<path class="st0" d="M13,16.3c0-1.1-0.2-2.1-0.5-3s-0.7-1.6-1.4-2.2C10.5,10.5,9.9,10,9,9.6C8.2,9.2,7.3,9.1,6.4,9.1
		c-0.3,0-0.6,0-0.9,0.1S4.9,9.3,4.6,9.4v10.8v0.4c0,0.2,0,0.4,0.1,0.5s0.1,0.3,0.1,0.5c0,0.1,0.1,0.2,0.2,0.3c0.3,0.2,0.6,0.4,1,0.5
		s0.8,0.1,1.1,0.1c0.9,0,1.7-0.1,2.4-0.4c0.7-0.2,1.4-0.6,1.9-1.1s0.9-1.2,1.2-1.9C12.9,18.2,13,17.3,13,16.3 M14.9,15.5
		c0,1.4-0.2,2.5-0.6,3.5s-0.9,1.8-1.6,2.5s-1.5,1.1-2.5,1.5c-0.9,0.3-2,0.5-3.2,0.5c-0.4,0-0.9,0-1.3,0c-0.3-0.1-0.7-0.2-1.1-0.2
		c-0.5,0-1-0.1-1.5-0.1s-1,0-1.5,0c-0.1,0-0.2-0.1-0.2-0.2s0-0.2,0.2-0.2c0.2-0.1,0.4-0.1,0.6-0.2c0.2-0.2,0.3-0.3,0.4-0.4
		s0.1-0.3,0.2-0.5c0-0.2,0-0.5,0-0.8V9.6c0-0.2,0-0.4-0.1-0.5S2.6,8.9,2.3,8.8c0,0-0.1-0.1-0.2-0.1S2,8.7,1.8,8.6
		c-0.1,0-0.2,0-0.3,0c-0.1,0-0.2-0.1-0.2-0.2s0-0.1,0-0.2c0-0.1,0.1-0.1,0.2-0.1c0.2,0,0.4,0,0.6,0h0.6c0.2,0,0.5,0,0.7,0.1
		c0.2,0,0.5,0,0.8,0c0.3,0,0.6,0,1,0l1-0.1c0.3,0,0.6,0,1,0s0.7,0,1,0c0.4,0,0.9,0.1,1.4,0.2c0.5,0.1,1,0.4,1.4,0.6
		c0.5,0.2,1,0.6,1.4,0.9c0.5,0.4,0.9,0.7,1.2,1.2c0.4,0.4,0.6,0.9,0.9,1.4c0.2,0.5,0.4,1,0.4,1.5c0,0.2,0,0.5,0,0.8L14.9,15.5
		L14.9,15.5z M21.9,19.5c-0.1,0.2-0.1,0.5-0.1,0.7l-0.2,0.7v0.4c0,0.1-0.1,0.1-0.1,0.1l-0.3,0.1h-1.9c-0.2,0-0.5,0-0.7,0h-0.7
		c-0.4,0-0.8,0-1.2,0s-0.8,0-1.1-0.1c-0.1,0-0.1,0-0.1-0.1s0.1-0.1,0.2-0.1c0.2,0,0.3,0,0.4-0.1s0.2-0.2,0.2-0.3
		c0.1-0.1,0.1-0.2,0.1-0.4c0-0.1,0-0.3,0-0.5v-8.2c0-0.1,0-0.2,0-0.3s-0.1-0.1-0.1-0.2c0,0-0.1-0.1-0.2-0.1L15.8,11
		c-0.1,0-0.2,0-0.3-0.1c-0.1,0-0.2-0.1-0.3-0.2c-0.1,0-0.1-0.1-0.1-0.1c0-0.1,0.1-0.1,0.2-0.1h5.6c0.1,0,0.1,0,0.2-0.1
		c0.1,0,0.1,0,0.2,0s0.1,0.1,0.1,0.1c0,0.3-0.1,0.5-0.1,0.8s-0.1,0.5-0.2,0.8v0.1v0.1c0,0.1-0.1,0.1-0.2,0.1s-0.1,0-0.2-0.1
		c0-0.5-0.2-0.7-0.5-0.9c-0.2-0.1-0.6-0.2-1-0.2H19c-0.1,0-0.2,0-0.2,0c-0.1,0-0.2,0-0.3,0h-0.2c-0.1,0-0.1,0-0.2,0s-0.1,0-0.1,0
		v3.9h2.2c0,0,0.1,0,0.2,0s0.2-0.1,0.3-0.1c0.1,0,0.2-0.1,0.3-0.1c0.1,0,0.1-0.1,0.2-0.1s0.1,0,0.2,0l0.1,0.1l-0.1,0.5l-0.1,0.4
		c-0.1,0.4-0.1,0.7-0.1,1.1c0,0.1,0,0.1-0.1,0.1s-0.1,0-0.2,0c-0.3-0.1-0.3-0.2-0.3-0.2l-0.1-0.2l-0.1-0.3c0-0.1,0-0.1-0.1-0.2
		C20.1,16,20,16,19.9,16c-0.2,0-0.4-0.1-0.6-0.1s-0.4,0-0.6,0h-0.5h-0.2v4c0.2,0.3,0.4,0.5,0.8,0.7s0.7,0.2,1,0.2
		c0.4,0,0.8-0.1,1.1-0.3c0.3-0.2,0.5-0.6,0.6-1c0-0.2,0.1-0.2,0.1-0.2h0.1L21.9,19.5z M31.8,19.3c0,0.3,0,0.6-0.1,1
		s-0.2,0.6-0.3,0.9l-0.1,0.1c-0.6,0.1-1.2,0.2-1.9,0.2s-1.2,0.1-1.9,0.1c-0.8,0-1.5-0.1-2.2-0.4c-0.7-0.2-1.2-0.6-1.7-1.1
		s-0.9-1-1.2-1.7C22.1,17.7,22,17,22,16.2c0-0.9,0.2-1.7,0.5-2.5s0.8-1.5,1.4-2.1c0.2-0.2,0.5-0.4,0.9-0.6c0.4-0.1,0.7-0.3,1.1-0.4
		c0.4-0.1,0.7-0.2,1.1-0.2s0.7-0.1,1.1-0.1s0.7,0,1.1,0.1s0.7,0.1,1,0.1l0.7,0.1c0.2,0,0.5,0.1,0.7,0.1c0.1,0,0.1,0,0.1,0.1
		c0,0.5,0,0.9-0.1,1.4c0,0.4-0.1,0.9-0.2,1.3c0,0.1-0.1,0.1-0.2,0.1c-0.1,0-0.1,0-0.1-0.1c-0.1-0.4-0.2-0.8-0.4-1.1
		s-0.4-0.6-0.7-0.8s-0.6-0.4-1-0.5s-0.7-0.2-1.2-0.2c-0.7,0-1.3,0.1-1.9,0.3c-0.5,0.2-1,0.5-1.4,0.9s-0.7,0.9-0.9,1.4
		c-0.2,0.5-0.3,1.2-0.3,1.9c0,0.7,0.1,1.4,0.4,2c0.2,0.6,0.6,1.2,1.1,1.7s1,0.9,1.6,1.2c0.6,0.3,1.3,0.5,2,0.5c0.4,0,0.8,0,1.1-0.1
		s0.6-0.2,0.8-0.4c0.2-0.2,0.4-0.4,0.6-0.7c0.2-0.3,0.4-0.6,0.5-1h0.3C31.8,18.9,31.8,19.1,31.8,19.3 M37.5,16.5L36.2,13l-0.6,1.8
		c-0.2,0.6-0.4,1.1-0.6,1.7C35,16.5,37.5,16.5,37.5,16.5z M61.4,19.5c-0.1,0.2-0.1,0.5-0.1,0.7l-0.1,0.7v0.4c0,0.1-0.1,0.1-0.1,0.1
		L61,21.5h-1.9c-0.2,0-0.5,0-0.7,0h-0.8c-0.4,0-0.8,0-1.2,0c-0.3,0-0.6,0-0.9,0c-0.5,0-1,0.1-1.5,0.1s-1,0-1.5,0c-0.1,0-0.1,0-0.1,0
		v-0.1c0-0.1,0.1-0.2,0.1-0.4c0-0.1,0-0.2,0-0.4c0-0.7,0-1.5-0.1-2.2c-0.1-0.8-0.1-1.5-0.3-2.2L52,15.7l-0.1-0.5l-0.1-0.5l-0.1-0.6
		c-0.4,0.9-0.9,1.7-1.3,2.6l-1.1,2.6l-0.5,1.1l-0.5,1.1l-0.1,0.1c-0.1,0-0.1,0-0.2-0.1c-0.6-0.8-1.1-1.7-1.6-2.6
		c-0.4-0.9-0.9-1.8-1.2-2.7l-0.3-0.6c-0.1-0.2-0.1-0.4-0.2-0.5l-0.2-0.5c-0.1-0.2-0.2-0.4-0.3-0.6c0,0.3,0,0.5-0.1,0.8
		c0,0.3-0.1,0.5-0.1,0.8c-0.1,0.7-0.2,1.4-0.2,2.1c-0.1,0.7-0.1,1.4-0.1,2.1v0.4v0.4c0,0.1,0,0.1,0,0.2l0.1,0.1c0,0,0.1,0.1,0.2,0.1
		l0.2,0.1c0.1,0,0.2,0.1,0.3,0.1s0.1,0.1,0.1,0.1c0,0.1-0.1,0.1-0.2,0.1c-0.5,0-1,0-1.5,0c-0.4,0-0.8,0-1.2,0c-0.2,0-0.3,0-0.5,0
		h-0.8c-0.2,0-0.5,0-0.8,0s-0.6,0-0.7,0c-0.1,0-0.1,0-0.2-0.1v-0.1l0.5-0.2c-0.2-0.6-0.5-1.2-0.7-1.9s-0.5-1.2-0.7-1.9h-2.9
		c-0.1,0.2-0.2,0.4-0.3,0.8c-0.1,0.3-0.2,0.7-0.4,1c-0.1,0.4-0.2,0.7-0.3,1s-0.1,0.5-0.1,0.7S33.8,21,34,21s0.3,0.1,0.5,0.1
		c0.1,0,0.1,0.1,0.1,0.1c0,0.1,0,0.1-0.1,0.1h-3.1c-0.1-0.1-0.1-0.2,0-0.2h0.2c0.1,0,0.2,0,0.4-0.1c0.1-0.1,0.2-0.2,0.4-0.3
		c0.1-0.1,0.2-0.2,0.3-0.4c0.1-0.1,0.1-0.2,0.2-0.4c0.2-0.6,0.5-1.3,0.7-2s0.5-1.4,0.7-2c0.4-1,0.7-1.9,1-2.9l1.1-2.9l0.1-0.1h0.1
		c0.2,0.2,0.3,0.5,0.5,0.8c0.1,0.4,0.2,0.7,0.4,1c0,0.1,0.1,0.1,0.1,0.2c0,0.1,0,0.1,0.1,0.1c0.1,0.3,0.2,0.6,0.4,1
		c0.1,0.3,0.3,0.6,0.4,1l0.5,1.5l0.6,1.5c0.2,0.5,0.4,1,0.6,1.5c0.2,0.5,0.4,1,0.6,1.4c0.1,0.3,0.3,0.5,0.6,0.6
		c0.1,0.1,0.3,0.1,0.5,0.2H42c0.1,0,0.2-0.1,0.2-0.2s0.1-0.2,0.1-0.6c0.1-0.3,0.1-0.7,0.2-1.2l0.2-1.6c0.1-0.6,0.1-1.2,0.2-1.8
		c0.1-0.6,0.1-1.2,0.2-1.8c0.1-0.6,0.1-1.1,0.2-1.6c0-0.4,0.1-0.8,0.1-1.1l0.1-0.7c0-0.1,0-0.1,0.1-0.1s0.1,0,0.2,0
		c0.1,0.1,0.2,0.2,0.4,0.5c0.1,0.2,0.3,0.6,0.5,0.9c0.2,0.4,0.4,0.8,0.6,1.2l0.7,1.4l0.7,1.4l0.6,1.4c0.2,0.5,0.4,0.9,0.6,1.2
		c0.1,0.3,0.2,0.5,0.4,0.7c0.2-0.5,0.5-1,0.7-1.5s0.5-1,0.7-1.5c0.2-0.4,0.4-0.9,0.6-1.3c0.2-0.4,0.4-0.9,0.6-1.3l0.3-0.6l0.6-1.2
		c0.2-0.4,0.4-0.8,0.7-1.2c0,0,0.1-0.1,0.2-0.1c0.1,0,0.1,0,0.1,0.1c0.1,0.6,0.1,1.3,0.2,2c0.1,0.6,0.1,1.3,0.2,1.9v0.4l0.1,0.6
		l0.1,0.9c0,0.3,0.1,0.7,0.1,1l0.1,1c0,0.3,0.1,0.6,0.1,0.9s0.1,0.5,0.1,0.7c0.1,0.2,0.1,0.4,0.2,0.5c0.1,0.2,0.2,0.3,0.4,0.4
		c0.1,0,0.3,0.1,0.5,0.1c0.1,0,0.2,0,0.3,0.1c0.2,0,0.4,0,0.5-0.1s0.2-0.2,0.2-0.3c0.1-0.1,0.1-0.2,0.1-0.4c0-0.1,0-0.3,0-0.5v-8.2
		c0-0.1,0-0.2,0-0.3s-0.1-0.1-0.1-0.2c0,0-0.1-0.1-0.2-0.1l-0.2,0.2c-0.1,0-0.2,0-0.3-0.1c-0.1,0-0.2-0.1-0.3-0.2
		c-0.1,0-0.1-0.1-0.1-0.1s0.1-0.1,0.2-0.1h5.6c0.1,0,0.1,0,0.2-0.1c0.1,0,0.1,0,0.2,0s0.1,0.1,0.1,0.1c0,0.3-0.1,0.5-0.1,0.8
		s-0.1,0.5-0.2,0.8V12v0.1c0,0.1-0.1,0.1-0.2,0.1s-0.1,0-0.1-0.1c0-0.5-0.2-0.7-0.5-0.9c-0.2-0.1-0.6-0.2-1-0.2h-0.2
		c-0.1,0-0.2,0-0.2,0c-0.1,0-0.2,0-0.3,0H58c-0.1,0-0.1,0-0.1,0h-0.1v3.9H60c0,0,0.1,0,0.2,0c0.1,0,0.2-0.1,0.3-0.1
		c0.1,0,0.2-0.1,0.3-0.1c0.1,0,0.1-0.1,0.2-0.1s0.1,0,0.2,0l0.1,0.1l-0.5,0.6l-0.1,0.4c-0.1,0.4-0.1,0.7-0.1,1.1
		c0,0.1,0,0.1-0.1,0.1s-0.1,0-0.2,0c-0.1-0.1-0.1-0.1-0.1-0.2l-0.1-0.2l-0.1-0.2c0-0.1,0-0.1-0.1-0.2S59.8,16,59.5,16
		s-0.4-0.1-0.6-0.1c-0.2,0-0.4,0-0.6,0h-0.5h-0.3v4c0.2,0.3,0.4,0.5,0.8,0.7s0.7,0.2,1,0.2c0.4,0,0.8-0.1,1.1-0.3
		c0.3-0.2,0.5-0.6,0.6-1c0.1-0.1,0.1-0.1,0.2-0.1S61.3,19.4,61.4,19.5L61.4,19.5z M72.3,21.4c-0.2,0.1-0.5,0.2-0.7,0.2
		c-0.2,0.1-0.5,0.1-0.7,0.1c-0.4,0-0.8-0.1-1.1-0.2c-0.3-0.1-0.6-0.4-0.9-0.6s-0.5-0.5-0.8-0.9c-0.2-0.3-0.5-0.6-0.7-1
		c-0.2-0.3-0.5-0.6-0.7-0.9s-0.4-0.6-0.7-0.7c-0.2-0.1-0.4-0.2-0.7-0.3c-0.2,0-0.5-0.1-0.7-0.1h-0.2c-0.1,0-0.2,0-0.2,0v2.7v0.2
		l0.1,0.4l0.1,0.4c0,0.1,0.1,0.2,0.1,0.2s0.1,0,0.2,0H65c0.1,0,0.2,0,0.3,0c0.1,0,0.2,0.1,0.3,0.1c0.1,0,0.1,0.1,0,0.1
		c0,0-0.1,0.1-0.2,0.1h-1.8c-0.6,0-1.2,0-1.8,0c-0.1,0-0.1,0-0.2-0.1c0-0.1,0-0.1,0.1-0.1c0.2,0,0.4-0.1,0.5-0.1s0.2-0.1,0.2-0.2
		c0.1-0.1,0.1-0.2,0.1-0.4s0-0.4,0-0.6v-8.1c0-0.2,0-0.3-0.1-0.4c0-0.1-0.1-0.2-0.1-0.2s-0.1-0.1-0.2-0.1s-0.1,0-0.2,0
		s-0.2,0-0.4-0.1c-0.1,0-0.2-0.1-0.2-0.2v-0.1l0.1-0.1h0.2h1c0.2,0,0.3,0,0.5,0s0.3,0,0.5,0h0.2c0.1,0,0.2,0,0.2,0h0.8
		c0.4,0,0.8,0,1.2,0.1c0.4,0,0.8,0.1,1.1,0.3c0.4,0.1,0.6,0.4,0.9,0.7c0.2,0.3,0.4,0.7,0.5,1.2c0,0,0,0.1,0,0.2s0,0.1,0,0.2
		c0,0.3,0,0.6-0.1,0.9c-0.1,0.3-0.2,0.6-0.4,0.9c-0.1,0.3-0.3,0.6-0.5,0.8s-0.4,0.5-0.6,0.7c0.1,0.2,0.3,0.4,0.5,0.6l0.5,0.7
		l0.9,1.2c0.3,0.4,0.6,0.8,1,1.1c0.4,0.3,0.7,0.6,1.1,0.8C71.3,21,71.6,21,72,21L72.3,21.4z M67.2,14c0-0.4,0-0.7-0.1-1
		c-0.1-0.4-0.2-0.6-0.4-0.9c-0.2-0.3-0.4-0.5-0.7-0.7s-0.6-0.2-1-0.2c-0.3,0-0.6,0-0.8,0.1v4.9c0.4,0.1,0.8,0.1,1.2,0.1
		c0.2,0,0.4,0,0.6,0s0.4-0.1,0.5-0.2s0.2-0.2,0.4-0.4c0.1-0.1,0.2-0.3,0.2-0.5c0.1-0.2,0.1-0.4,0.1-0.5C67.2,14.4,67.2,14.2,67.2,14
		 M80.7,16.3c0,0.7-0.1,1.4-0.4,2c-0.2,0.6-0.6,1.1-1.1,1.5s-1,0.8-1.6,1.1s-1.2,0.5-1.9,0.7h-0.2c-0.1,0-0.2,0-0.2,0s-0.2,0-0.3,0
		h-0.2c-0.4,0-0.8-0.1-1.2-0.2c-0.4-0.1-0.9-0.4-1.2-0.6c-0.4-0.2-0.8-0.6-1.1-0.9c-0.4-0.4-0.7-0.7-0.9-1.1
		c-0.2-0.4-0.5-0.8-0.6-1.2c-0.1-0.4-0.2-0.9-0.2-1.3c0-0.9,0.1-1.6,0.3-2.3c0.2-0.7,0.5-1.2,0.9-1.7s0.9-0.9,1.6-1.2
		c0.6-0.3,1.4-0.6,2.4-0.8c0.1,0,0.3,0,0.4-0.1c0.1,0,0.3,0,0.4,0c0.9,0,1.7,0.2,2.4,0.6c0.7,0.4,1.2,0.9,1.7,1.4
		c0.5,0.6,0.8,1.2,1,2C80.6,14.9,80.7,15.6,80.7,16.3 M79.2,16.3c0-0.6-0.1-1.3-0.3-1.9c-0.2-0.6-0.5-1.2-0.8-1.7
		c-0.4-0.5-0.8-0.9-1.4-1.2c-0.5-0.3-1.1-0.5-1.8-0.5c-0.6,0-1.2,0.1-1.7,0.4c-0.5,0.2-0.9,0.6-1.3,1s-0.6,0.9-0.8,1.5
		c-0.2,0.5-0.2,1.1-0.2,1.7s0.1,1.3,0.3,1.9c0.2,0.6,0.5,1.2,0.9,1.7s0.8,0.9,1.4,1.2c0.5,0.3,1.2,0.5,1.9,0.5
		c0.6,0,1.2-0.1,1.7-0.4c0.5-0.2,0.9-0.6,1.2-1c0.4-0.4,0.6-0.9,0.8-1.5C79.1,17.5,79.2,16.9,79.2,16.3 M91.4,11c0,0-0.1,0-0.1,0.1
		c-0.2,0.1-0.4,0.2-0.6,0.2c-0.1,0.1-0.2,0.2-0.2,0.4c0,1.6,0,3.3,0,4.9s0,3.3-0.1,4.9c0,0.1,0,0.1-0.1,0.1s-0.1,0-0.2,0
		c-0.6-0.5-1.2-1.1-1.9-1.7c-0.6-0.6-1.2-1.2-1.8-1.9c-0.6-0.6-1.2-1.3-1.7-1.9l-1.7-1.9c-0.2-0.2-0.3-0.4-0.4-0.5l-0.4-0.5
		c0,0.3,0,0.6,0,0.8c0,0.5,0,1,0,1.5l0.1,1.4l0.1,1.5c0,0.5,0,1,0,1.5c0,0.2,0,0.4,0.1,0.6c0,0.1,0.1,0.2,0.1,0.3
		c0.1,0.1,0.1,0.1,0.2,0.2c0.1,0,0.2,0.1,0.2,0.1c0.1,0,0.2,0,0.3,0.1c0.1,0,0.2,0.1,0.3,0.1c0.1,0,0.1,0.1,0.1,0.1
		s-0.1,0.1-0.2,0.1h-1.9c-0.2,0-0.5,0-0.8,0c-0.2,0-0.5,0-0.7,0c-0.1,0-0.1-0.1-0.1-0.1s0.1-0.1,0.2-0.1h0.2c0.2,0,0.4-0.1,0.5-0.3
		c0.1-0.1,0.2-0.4,0.2-0.6v-9.3c0-0.1,0-0.1,0.1-0.2c0-0.1,0.1-0.1,0.1-0.2c0.1-0.1,0.1-0.1,0.2,0c2.7,2.8,5.4,5.6,8,8.5V19
		c0-0.1,0-0.1,0-0.2c0-1.1,0-2.1-0.1-3.2s0-2.1,0-3.2c0-0.2,0-0.4-0.1-0.5c0-0.1-0.1-0.2-0.2-0.3s-0.1-0.1-0.2-0.1l-0.2-0.1
		l-0.3-0.1c-0.1,0-0.1-0.1-0.2-0.1s-0.1-0.1-0.1-0.1s0.1-0.1,0.2-0.1h1.1h1C90.8,11,91.1,11,91.4,11L91.4,11z"/>
	<path class="st0" d="M14.9,15.5v-0.7c0-0.3,0-0.6,0-0.8c0-0.5-0.2-1-0.4-1.5c-0.2-0.5-0.5-1-0.9-1.4s-0.7-0.8-1.2-1.2
		S11.4,9.2,10.9,9c-0.4-0.4-0.9-0.6-1.4-0.7C9.1,8.2,8.7,8.1,8.2,8.1c-0.3,0-0.6,0-1,0s-0.7,0-1,0c-0.4,0-0.7,0.1-1,0.1s-0.6,0-1,0
		c-0.2,0-0.5,0-0.8,0c-0.2,0-0.5,0-0.7-0.1c-0.2,0-0.4,0-0.6,0s-0.4,0-0.6,0c-0.1,0-0.1,0-0.2,0.1c0,0.1,0,0.1,0,0.2
		s0.1,0.2,0.2,0.2c0.1,0.1,0.2,0.1,0.4,0.1c0.1,0,0.2,0,0.3,0.1c0.1,0,0.2,0.1,0.3,0.1c0.1,0,0.2,0.1,0.2,0.3
		c0.1,0.1,0.1,0.2,0.1,0.5V21c0,0.3,0,0.6,0,0.8c0,0.2-0.1,0.4-0.2,0.5s-0.2,0.2-0.3,0.4c-0.1,0.1-0.4,0.2-0.6,0.2
		c-0.1,0-0.1,0-0.1,0.1s0.1,0.2,0.2,0.2c0.5,0,1,0,1.5,0s1,0.1,1.5,0.1c0.4,0,0.8,0.1,1.2,0.1s0.9,0,1.3,0c1.2,0,2.2-0.1,3.2-0.5
		c1-0.3,1.8-0.8,2.5-1.5c0.7-0.6,1.2-1.5,1.6-2.5C14.6,18,14.9,16.9,14.9,15.5 M13,16.3c0,1-0.1,1.9-0.4,2.7
		c-0.3,0.8-0.7,1.4-1.2,1.9s-1.1,0.9-1.9,1.1c-0.7,0.2-1.5,0.4-2.4,0.4c-0.3,0-0.7,0-1.1-0.1s-0.7-0.2-1-0.5
		c-0.1-0.1-0.1-0.1-0.2-0.3c0-0.1-0.1-0.3-0.1-0.5s0-0.4-0.1-0.5v-0.4V9.3c0.3-0.1,0.6-0.2,0.9-0.2C5.8,9.1,6.1,9,6.2,9
		c1,0,1.9,0.2,2.6,0.5c0.8,0.4,1.5,0.8,2.1,1.5c0.6,0.6,1,1.4,1.4,2.2C12.9,14.1,13,15.1,13,16.3"/>
	<path class="st0" d="M21.9,19.5L21.9,19.5c-0.1-0.1-0.1-0.1-0.1-0.1h-0.1c0,0-0.1,0-0.1,0.1c-0.1,0.4-0.3,0.8-0.6,1
		c-0.3,0.2-0.7,0.3-1.1,0.3c-0.3,0-0.7-0.1-1-0.2c-0.4-0.1-0.6-0.4-0.8-0.7v-4h0.2h0.5c0.2,0,0.4,0,0.6,0s0.4,0,0.6,0.1
		c0.2,0,0.3,0.1,0.4,0.1c0,0,0.1,0.1,0.1,0.2s0.1,0.2,0.1,0.2s0,0.1,0.1,0.2s0.1,0.1,0.1,0.2c0.1,0,0.1,0.1,0.2,0s0.1-0.1,0.1-0.1
		c0-0.4,0.1-0.7,0.1-1.1c0-0.1,0-0.3,0.1-0.4c0-0.1,0-0.3,0.1-0.5c0,0,0-0.1-0.1-0.1c0,0-0.1,0-0.2,0c0,0-0.1,0-0.2,0.1
		c-0.1,0-0.2,0.1-0.3,0.1S20.4,15,20.2,15S20,15,20,15h-2.2v-3.7c0.1,0,0.1,0,0.1,0s0.1,0,0.2,0h0.4c0.1,0,0.2,0,0.3,0
		c0.1,0,0.2,0,0.2,0h0.2c0.4,0,0.7,0.1,1,0.2c0.2,0.1,0.4,0.4,0.5,0.9c0,0.1,0.1,0.1,0.2,0.1s0.1,0,0.2-0.1v-0.1v-0.1
		c0.1-0.2,0.1-0.5,0.2-0.8s0.1-0.5,0.1-0.8c0,0,0-0.1-0.1-0.1c0,0-0.1,0-0.2,0c-0.1,0.1-0.2,0.1-0.2,0.1h-5.8c-0.1,0-0.1,0-0.2,0.1
		c0,0.1,0,0.1,0.1,0.1c0.1,0.1,0.2,0.1,0.3,0.2c0.1,0,0.2,0.1,0.3,0.1c0.1,0,0.1,0,0.2,0.1c0.1,0,0.1,0.1,0.2,0.1s0.1,0.1,0.1,0.2
		c0,0.1,0,0.2,0,0.3V20c0,0.2,0,0.3,0,0.5c0,0.1-0.1,0.3-0.1,0.4C16,21,16,21.1,15.9,21.2s-0.2,0.1-0.4,0.1c-0.1,0-0.1,0-0.1,0.1
		s0,0.1,0.1,0.1c0.4,0,0.7,0.1,1.1,0.1s0.8,0,1.2,0h0.8c0.2,0,0.5,0,0.7,0h1.9l0.2-0.1c0.1,0,0.1,0,0.1-0.1V21
		c0-0.2,0.1-0.5,0.1-0.7C21.8,20,21.8,19.8,21.9,19.5"/>
	<path class="st0" d="M31.8,19.3c0-0.2,0-0.4,0-0.5h-0.3c-0.2,0.4-0.4,0.7-0.5,1c-0.2,0.3-0.4,0.5-0.6,0.7s-0.5,0.3-0.8,0.4
		S29,21,28.5,21c-0.7,0-1.4-0.1-2-0.5c-0.6-0.3-1.1-0.7-1.6-1.2s-0.8-1.1-1.1-1.7c-0.2-0.6-0.4-1.3-0.4-2c0-0.7,0.1-1.3,0.3-1.9
		c0.2-0.6,0.5-1,0.9-1.4s0.9-0.7,1.4-0.9s1.2-0.3,1.9-0.3c0.4,0,0.8,0.1,1.2,0.2c0.4,0.1,0.7,0.3,1,0.5s0.5,0.5,0.7,0.8
		s0.3,0.7,0.4,1.1c0,0.1,0.1,0.1,0.2,0.1s0.1,0,0.2-0.1c0.1-0.4,0.1-0.9,0.2-1.3c0-0.5,0.1-0.9,0.1-1.4c0-0.1,0-0.1-0.1-0.1
		c-0.2,0-0.5,0-0.7-0.1c-0.2,0-0.5-0.1-0.7-0.1c-0.4,0-0.7-0.1-1-0.1c-0.4,0-0.7-0.1-1.1-0.1c-0.3,0-0.7,0-1.1,0.1
		c-0.4,0-0.7,0.1-1.1,0.2c-0.4,0.1-0.7,0.2-1.1,0.4c-0.4,0.1-0.6,0.4-0.9,0.6c-0.6,0.6-1.1,1.3-1.4,2.1c-0.3,0.8-0.5,1.6-0.5,2.5
		c0,0.8,0.1,1.5,0.4,2.2c0.3,0.6,0.7,1.2,1.2,1.7s1.1,0.9,1.7,1.1c0.7,0.2,1.4,0.4,2.2,0.4c0.6,0,1.2,0,1.9-0.1s1.2-0.1,1.9-0.2
		c0.1,0,0.1,0,0.1-0.1c0.1-0.2,0.2-0.6,0.3-0.9C31.8,19.9,31.8,19.6,31.8,19.3"/>
	<path class="st0" d="M42,21.4v-0.2c-0.3,0-0.6-0.1-0.8-0.2s-0.4-0.3-0.6-0.6C40.4,20,40.2,19.5,40,19c-0.2-0.5-0.4-1-0.6-1.5
		c-0.2-0.5-0.4-1-0.6-1.5c-0.2-0.5-0.4-1-0.5-1.5c-0.1-0.4-0.2-0.7-0.4-1c-0.1-0.3-0.2-0.6-0.4-1c0,0,0-0.1-0.1-0.1
		c0-0.1,0-0.1-0.1-0.2c-0.1-0.3-0.2-0.6-0.4-1c-0.1-0.4-0.3-0.6-0.5-0.8c0,0-0.1-0.1-0.1,0l-0.1,0.1c-0.4,1-0.7,1.9-1.1,2.9
		c-0.4,0.9-0.7,1.9-1,2.9c-0.2,0.6-0.5,1.3-0.7,2s-0.5,1.3-0.7,2c0,0.1-0.1,0.2-0.2,0.4c-0.1,0.1-0.2,0.2-0.3,0.4s-0.2,0.2-0.4,0.3
		c-0.1-0.2-0.2-0.1-0.3-0.1h-0.1h-0.1v0.1c0,0,0,0,0,0.1l0,0h3.1c0.1,0,0.1,0,0.1-0.1s0-0.1-0.1-0.1s-0.3-0.1-0.5-0.1
		c-0.1-0.1-0.2-0.2-0.2-0.3s0-0.4,0.1-0.7s0.2-0.7,0.3-1c0.1-0.4,0.2-0.7,0.4-1c0.1-0.4,0.2-0.6,0.3-0.8h2.9
		c0.2,0.6,0.5,1.2,0.7,1.9c0.2,0.6,0.5,1.2,0.7,1.9l-0.5,0.1c-0.1,0-0.1,0.1,0,0.1c0,0,0.1,0.1,0.2,0.1c0.2,0,0.5,0,0.7,0
		c0.3,0,0.6,0,0.8,0h0.9C41.5,21.5,41.5,21.5,42,21.4 M37.5,16.5H35c0.2-0.6,0.4-1.2,0.6-1.7c0.2-0.6,0.4-1.2,0.6-1.8L37.5,16.5z"/>
	<path class="st0" d="M55.5,21.2c-0.1,0-0.2-0.1-0.3-0.1S55,21,54.8,21s-0.3-0.1-0.5-0.1c-0.1-0.1-0.2-0.2-0.4-0.4
		c-0.1-0.1-0.1-0.2-0.2-0.5c0-0.2-0.1-0.5-0.1-0.7c0-0.3-0.1-0.6-0.1-0.9c0-0.4-0.1-0.7-0.1-1c0-0.4-0.1-0.7-0.1-1
		c0-0.4-0.1-0.6-0.1-0.9c0-0.2,0-0.4-0.1-0.6c0-0.2,0-0.3,0-0.4c-0.1-0.6-0.1-1.3-0.2-1.9c-0.1-0.6-0.1-1.3-0.2-2
		c0-0.1-0.1-0.1-0.1-0.1c-0.1,0-0.1,0-0.2,0.1c-0.2,0.4-0.5,0.8-0.7,1.2s-0.4,0.8-0.6,1.2l-0.3,0.6c-0.2,0.5-0.4,0.9-0.6,1.3
		c-0.2,0.4-0.4,0.9-0.6,1.3c-0.2,0.5-0.5,1-0.7,1.5s-0.5,1-0.7,1.5c-0.1-0.2-0.2-0.4-0.4-0.7c-0.1-0.3-0.3-0.7-0.6-1.2
		c-0.2-0.4-0.4-0.9-0.6-1.4c-0.2-0.5-0.5-1-0.7-1.4c-0.2-0.5-0.5-1-0.7-1.4c-0.2-0.5-0.4-0.9-0.6-1.2c-0.2-0.4-0.4-0.7-0.5-0.9
		s-0.3-0.4-0.4-0.5c-0.1,0-0.1-0.1-0.2,0c-0.1,0-0.1,0.1-0.1,0.1c0,0.1,0,0.4-0.1,0.7c0,0.3-0.1,0.7-0.1,1.1c0,0.5-0.1,1-0.2,1.6
		c-0.1,0.6-0.1,1.2-0.2,1.8c-0.1,0.6-0.1,1.2-0.2,1.8c-0.1,0.6-0.1,1.1-0.2,1.6c-0.1,0.5-0.1,0.9-0.2,1.2c0,0.3-0.1,0.5-0.1,0.6
		c-0.1,0.1-0.1,0.2-0.2,0.2c-0.1,0-0.2,0-0.3,0.1c0,0-0.1,0-0.2,0c-0.1,0-0.1,0-0.1,0l-0.1,0.1l0.1,0.1c0.5,0,1,0,1.5,0s1,0,1.5,0
		c0.1,0,0.1,0,0.2-0.1c0-0.1,0-0.1-0.1-0.1c-0.1-0.1-0.2-0.1-0.4-0.1c-0.1,0-0.2-0.1-0.2-0.1l0,0c-0.1,0-0.2-0.1-0.2-0.1l-0.1-0.1
		c0,0,0-0.1,0-0.2v-0.4v-0.4c0-0.7,0-1.4,0.1-2.1s0.2-1.4,0.2-2.1c0-0.2,0.1-0.5,0.1-0.8s0.1-0.5,0.1-0.8c0.1,0.2,0.2,0.4,0.3,0.6
		c0.1,0.2,0.1,0.3,0.2,0.5c0.1,0.1,0.1,0.3,0.2,0.5c0.1,0.2,0.2,0.4,0.3,0.6c0.4,0.9,0.8,1.8,1.2,2.7c0.4,0.9,1,1.7,1.6,2.6
		c0,0,0.1,0.1,0.2,0.1s0.1,0,0.1-0.1c0.2-0.4,0.4-0.7,0.5-1.1c0.2-0.4,0.4-0.7,0.5-1.1c0.4-0.9,0.8-1.7,1.2-2.6s0.8-1.7,1.3-2.6
		c0,0.2,0,0.4,0.1,0.6c0,0.2,0,0.3,0.1,0.5c0,0.1,0,0.3,0.1,0.5c0,0.2,0,0.4,0.1,0.6c0.1,0.7,0.2,1.5,0.2,2.2
		c0.1,0.8,0.1,1.5,0.1,2.2c0,0.1,0,0.2,0,0.4c0,0.1,0,0.2-0.1,0.4v0.1h0.1c0.5,0,1,0,1.5,0s1,0,1.5,0L55.5,21.2z"/>
	<path class="st0" d="M61.4,19.5L61.4,19.5c-0.1-0.1-0.1-0.1-0.1-0.1h-0.1c0,0-0.1,0-0.1,0.1c-0.1,0.4-0.3,0.8-0.6,1
		c-0.3,0.2-0.7,0.3-1.1,0.3c-0.3,0-0.7-0.1-1-0.2c-0.4-0.1-0.6-0.4-0.8-0.7v-4h0.2h0.5c0.2,0,0.4,0,0.6,0c0.2,0,0.4,0,0.6,0.1
		c0.2,0,0.3,0.1,0.4,0.1c0,0,0.1,0.1,0.1,0.2s0.1,0.2,0.1,0.2c0,0.1,0,0.1,0.1,0.2s0.1,0.1,0.1,0.2c0.1,0,0.1,0.1,0.2,0
		c0.1,0,0.1-0.1,0.1-0.1c0-0.4,0.1-0.7,0.1-1.1c0-0.1,0-0.3,0.1-0.4c0-0.1,0-0.3,0.1-0.5c0,0,0-0.1-0.1-0.1c0,0-0.1,0-0.2,0
		c0,0-0.1,0-0.2,0.1c-0.1,0-0.2,0.1-0.3,0.1S60,15,59.8,15c-0.1,0-0.2,0-0.2,0h-2.1v-3.7c0.1,0,0.1,0,0.1,0h0.1h0.3
		c0.1,0,0.2,0,0.3,0s0.2,0,0.2,0h0.2c0.4,0,0.7,0.1,1,0.2c0.3,0.1,0.4,0.4,0.5,0.9c0,0.1,0.1,0.1,0.1,0.1c0.1,0,0.1,0,0.2-0.1v-0.1
		v-0.1c0.1-0.2,0.1-0.5,0.2-0.8s0.1-0.5,0.1-0.8c0,0,0-0.1-0.1-0.1c0,0-0.1,0-0.2,0c-0.1,0.1-0.2,0.1-0.2,0.1h-5.6
		c-0.1,0-0.1,0-0.2,0.1c0,0.1,0,0.1,0.1,0.1c0.1,0.1,0.2,0.1,0.3,0.2c0.1,0,0.2,0.1,0.3,0.1s0.1,0,0.2,0.1c0.1,0,0.1,0.1,0.2,0.1
		c0.1,0,0.1,0.1,0.1,0.2c0,0.1,0,0.2,0,0.3V20c0,0.2,0,0.3,0,0.5c0,0.1-0.1,0.3-0.1,0.4c-0.1,0.1-0.1,0.2-0.2,0.3s-0.2,0.1-0.4,0.1
		c-0.1,0-0.1,0-0.2,0.1c0,0.1,0,0.1,0.1,0.1c0.4,0,0.7,0.1,1.1,0.1c0.4,0,0.8,0,1.2,0h0.7c0.2,0,0.5,0,0.7,0h1.9l0.2-0.1
		c0.1,0,0.1,0,0.1-0.1V21c0-0.2,0.1-0.5,0.1-0.7C61.3,20,61.3,19.8,61.4,19.5"/>
	<path class="st0" d="M72.3,21.4l-0.1-0.2c-0.4,0.1-0.7,0-1.1-0.2s-0.7-0.5-1.1-0.8s-0.7-0.7-1-1.1s-0.6-0.8-0.9-1.2
		c-0.2-0.2-0.4-0.5-0.5-0.7c-0.2-0.2-0.3-0.4-0.5-0.6c0.2-0.2,0.4-0.4,0.6-0.7c0.2-0.2,0.4-0.5,0.5-0.8s0.3-0.6,0.4-0.9
		c0.1-0.3,0.1-0.6,0.1-0.9c0-0.1,0-0.1,0-0.2c0-0.1,0-0.1,0-0.2c-0.1-0.5-0.3-0.9-0.5-1.2s-0.5-0.5-0.9-0.7
		c-0.3-0.2-0.7-0.3-1.1-0.3c-0.4-0.1-0.8-0.1-1.2-0.1h-0.8c-0.1,0-0.2,0-0.2,0h-0.2c-0.1,0-0.3,0-0.5,0s-0.3,0-0.5,0h-1h-0.2
		c-0.1,0-0.1,0-0.1,0.1v0.1c0,0.1,0.1,0.2,0.2,0.2s0.2,0,0.4,0.1c0.1,0,0.1,0,0.2,0s0.1,0,0.2,0.1c0.1,0,0.1,0.1,0.1,0.2
		c0,0.1,0.1,0.2,0.1,0.4v8.1c0,0.2,0,0.4,0,0.6s0,0.2-0.1,0.4c0,0.1-0.1,0.1-0.2,0.2c-0.1,0-0.3,0.1-0.5,0.1c-0.1,0-0.1,0.1-0.1,0.1
		s0.1,0.1,0.2,0.1c0.6,0,1.2,0,1.8,0h1.8c0.1,0,0.1,0,0.2-0.1v-0.1c-0.1-0.1-0.2-0.1-0.3-0.1c-0.1,0-0.2,0-0.3,0c0,0-0.1,0-0.2,0
		s-0.1,0-0.2,0c0,0-0.1-0.1-0.1-0.2s-0.1-0.2-0.1-0.4c0-0.1-0.1-0.2-0.1-0.4c0-0.1,0-0.2,0-0.2v-2.7c0.1,0,0.1,0,0.2,0H65
		c0.2,0,0.4,0,0.7,0.1c0.2,0,0.5,0.1,0.7,0.3c0.2,0.2,0.5,0.5,0.7,0.7c0.2,0.3,0.5,0.6,0.7,0.9s0.5,0.6,0.7,1
		c0.2,0.3,0.5,0.6,0.8,0.9s0.6,0.4,0.9,0.6c0.3,0.1,0.7,0.2,1.1,0.2c0.2,0,0.5,0,0.7-0.1C71.9,21.6,72.1,21.5,72.3,21.4 M67.2,14
		c0,0.2,0,0.4,0,0.5c0,0.2-0.1,0.4-0.1,0.5c-0.1,0.2-0.1,0.4-0.2,0.5s-0.2,0.3-0.3,0.4c-0.1,0.1-0.3,0.2-0.5,0.2s-0.4,0-0.6,0
		c-0.4,0-0.8,0-1.2-0.1v-4.7c0.2-0.1,0.5-0.1,0.8-0.1c0.4,0,0.7,0.1,1,0.2c0.3,0.2,0.5,0.4,0.7,0.7c0.2,0.2,0.3,0.6,0.4,0.9
		C67.2,13.3,67.2,13.7,67.2,14"/>
	<path class="st0" d="M80.7,16.3c0-0.7-0.1-1.4-0.3-2.2c-0.2-0.7-0.5-1.4-1-2s-1-1.1-1.7-1.4c-0.7-0.4-1.5-0.6-2.4-0.6
		c-0.1,0-0.3,0-0.4,0s-0.3,0-0.4,0.1c-0.9,0.2-1.7,0.5-2.4,0.8c-0.6,0.3-1.2,0.7-1.6,1.2s-0.7,1.1-0.9,1.7s-0.3,1.4-0.3,2.3
		c0,0.4,0.1,0.9,0.2,1.3s0.4,0.9,0.6,1.2c0.2,0.4,0.6,0.7,0.9,1.1c0.4,0.4,0.7,0.6,1.1,0.9s0.8,0.4,1.2,0.6c0.4,0.1,0.9,0.2,1.2,0.2
		h0.2c0.1,0,0.2,0,0.3,0s0.2,0,0.2,0c0.1,0,0.2,0,0.2,0c0.7-0.1,1.3-0.4,1.9-0.7c0.6-0.3,1.1-0.6,1.6-1.1c0.5-0.4,0.8-0.9,1.1-1.5
		C80.6,17.8,80.7,17.1,80.7,16.3 M79.2,16.3c0,0.6-0.1,1.2-0.2,1.8c-0.2,0.6-0.4,1-0.8,1.5c-0.3,0.4-0.7,0.7-1.2,1
		c-0.5,0.2-1.1,0.4-1.7,0.4c-0.7,0-1.3-0.1-1.9-0.5c-0.5-0.3-1-0.7-1.4-1.2s-0.6-1.1-0.9-1.7c-0.2-0.6-0.3-1.3-0.3-1.9
		s0.1-1.2,0.2-1.7c0.2-0.6,0.5-1,0.8-1.5c0.4-0.4,0.8-0.7,1.3-1c0.5-0.2,1.1-0.4,1.7-0.4c0.7,0,1.3,0.1,1.8,0.5
		c0.5,0.3,1,0.7,1.4,1.2s0.6,1.1,0.8,1.7C79.1,15,79.2,15.6,79.2,16.3"/>
	<path class="st0" d="M91.4,11v-0.2c-0.4,0-0.7,0-1.1,0h-1h-1.1c-0.1,0-0.1,0-0.2,0.1c0,0,0,0.1,0.1,0.1c0,0.1,0.1,0.1,0.2,0.1
		s0.2,0,0.3,0.1c0.1,0,0.2,0,0.2,0.1c0.1,0,0.2,0.1,0.2,0.1c0.1,0.1,0.1,0.1,0.2,0.3c0,0.1,0.1,0.3,0.1,0.5c0,1.1,0,2.1,0,3.2
		s0.1,2.1,0.1,3.2c0,0.1,0,0.1,0,0.2V19c-2.6-2.9-5.2-5.7-8-8.5c-0.1-0.1-0.1-0.1-0.2,0s-0.1,0.1-0.1,0.2c0,0-0.1,0.1-0.1,0.2v9.4
		c0,0.2-0.1,0.5-0.2,0.6s-0.3,0.2-0.5,0.3h-0.2c-0.1,0-0.1,0.1-0.2,0.1c0,0.1,0,0.1,0.1,0.1c0.2,0,0.5,0.1,0.7,0s0.5-0.1,0.8,0h1.9
		c0.1,0,0.1,0,0.2-0.1c0-0.1,0-0.1-0.1-0.1c-0.1-0.1-0.2-0.1-0.3-0.1c-0.1,0-0.2-0.1-0.3-0.1c-0.1,0-0.2,0-0.2-0.1
		c-0.1,0-0.2-0.1-0.2-0.2c-0.1-0.1-0.1-0.2-0.1-0.3c0-0.1-0.1-0.3-0.1-0.6c0-0.5,0-1,0-1.5s0-1-0.1-1.5c0-0.5,0-1-0.1-1.4
		c0-0.5,0-1,0-1.5c0-0.2,0-0.5,0-0.8c0.2,0.2,0.3,0.4,0.4,0.5s0.2,0.3,0.4,0.5c0.6,0.6,1.1,1.2,1.7,1.9s1.2,1.3,1.7,1.9
		c0.6,0.6,1.2,1.2,1.8,1.9s1.2,1.2,1.9,1.7c0.1,0,0.1,0,0.2,0s0.1-0.1,0.1-0.1c0.1-1.6,0.2-3.2,0.1-4.9c0-1.6,0-3.3,0-4.9
		c0-0.2,0.1-0.3,0.2-0.4c0.1-0.1,0.3-0.1,0.5-0.2c0,0,0.1,0,0.1-0.1C91.4,11,91.4,11,91.4,11"/>
</g>
</svg>
