<?xml version="1.0" encoding="UTF-8"?>
<svg width="24px" height="40px" viewBox="0 0 24 40" version="1.1" xmlns="http://www.w3.org/2000/svg" xmlns:xlink="http://www.w3.org/1999/xlink">
    <!-- Generator: Sketch 51.3 (57544) - http://www.bohemiancoding.com/sketch -->
    <title>arrow-up-down</title>
    <desc>Created with Sketch.</desc>
    <defs></defs>
    <g id="Style" stroke="none" stroke-width="1" fill="none" fill-rule="evenodd">
        <g id="Icons" transform="translate(-115.000000, -698.000000)" fill="#000000" fill-rule="nonzero">
            <g id="arrow-up-down" transform="translate(115.000000, 698.412500)">
                <path d="M20.3221477,24.6784013 L11.9892617,33.6773659 L3.65637584,24.6784013 C2.81879195,23.7738662 1.46577181,23.7738662 0.628187919,24.6784013 C-0.209395973,25.5829364 -0.209395973,27.0441085 0.628187919,27.9486436 L10.485906,38.5943259 C11.3234899,39.498861 12.6765101,39.498861 13.514094,38.5943259 L23.3718121,27.9486436 C24.209396,27.0441085 24.209396,25.5829364 23.3718121,24.6784013 C22.5342282,23.7970594 21.1597315,23.7738662 20.3221477,24.6784013 Z" id="Shape-Copy-2"></path>
                <path d="M20.3221477,0.678401325 L11.9892617,9.67736591 L3.65637584,0.678401325 C2.81879195,-0.226133775 1.46577181,-0.226133775 0.628187919,0.678401325 C-0.209395973,1.58293643 -0.209395973,3.04410851 0.628187919,3.94864361 L10.485906,14.5943259 C11.3234899,15.498861 12.6765101,15.498861 13.514094,14.5943259 L23.3718121,3.94864361 C24.209396,3.04410851 24.209396,1.58293643 23.3718121,0.678401325 C22.5342282,-0.202940567 21.1597315,-0.226133775 20.3221477,0.678401325 Z" id="Shape-Copy-3" transform="translate(12.000000, 7.636364) rotate(180.000000) translate(-12.000000, -7.636364) "></path>
            </g>
        </g>
    </g>
</svg>