<?xml version="1.0" encoding="UTF-8"?>
<svg width="38px" height="40px" viewBox="0 0 38 40" version="1.1" xmlns="http://www.w3.org/2000/svg" xmlns:xlink="http://www.w3.org/1999/xlink">
    <!-- Generator: Sketch 51.3 (57544) - http://www.bohemiancoding.com/sketch -->
    <title>calendar</title>
    <desc>Created with Sketch.</desc>
    <defs></defs>
    <g id="Style" stroke="none" stroke-width="1" fill="none" fill-rule="evenodd">
        <g id="Icons" transform="translate(-107.000000, -911.000000)" fill="#000000" fill-rule="nonzero">
            <g id="calendar" transform="translate(107.000000, 911.000000)">
                <path d="M36.6666667,2.66666667 L32,2.66666667 L32,0.666666667 C32,0.298 31.702,0 31.3333333,0 L26.6666667,0 C26.298,0 26,0.298 26,0.666666667 L26,2.66666667 L11.3333333,2.66666667 L11.3333333,0.666666667 C11.3333333,0.298 11.0353333,0 10.6666667,0 L6,0 C5.63133333,0 5.33333333,0.298 5.33333333,0.666666667 L5.33333333,2.66666667 L0.666666667,2.66666667 C0.298,2.66666667 0,2.96466667 0,3.33333333 L0,10.6666667 L0,39.3333333 C0,39.702 0.298,40 0.666666667,40 L36.6666667,40 C37.0353333,40 37.3333333,39.702 37.3333333,39.3333333 L37.3333333,10.6666667 L37.3333333,3.33333333 C37.3333333,2.96466667 37.0353333,2.66666667 36.6666667,2.66666667 Z M27.3333333,1.33333333 L30.6666667,1.33333333 L30.6666667,3.33333333 L30.6666667,5.33333333 L27.3333333,5.33333333 L27.3333333,3.33333333 L27.3333333,1.33333333 Z M6.66666667,1.33333333 L10,1.33333333 L10,3.33333333 L10,5.33333333 L6.66666667,5.33333333 L6.66666667,3.33333333 L6.66666667,1.33333333 Z M1.33333333,4 L5.33333333,4 L5.33333333,6 C5.33333333,6.36866667 5.63133333,6.66666667 6,6.66666667 L10.6666667,6.66666667 C11.0353333,6.66666667 11.3333333,6.36866667 11.3333333,6 L11.3333333,4 L26,4 L26,6 C26,6.36866667 26.298,6.66666667 26.6666667,6.66666667 L31.3333333,6.66666667 C31.702,6.66666667 32,6.36866667 32,6 L32,4 L36,4 L36,10 L1.33333333,10 L1.33333333,4 Z M1.33333333,38.6666667 L1.33333333,11.3333333 L36,11.3333333 L36,38.6666667 L1.33333333,38.6666667 Z" id="Shape"></path>
                <path d="M24,15.3333333 L19.3333333,15.3333333 L18,15.3333333 L13.3333333,15.3333333 L12,15.3333333 L6,15.3333333 L6,21.3333333 L6,22.6666667 L6,27.3333333 L6,28.6666667 L6,34.6666667 L12,34.6666667 L13.3333333,34.6666667 L18,34.6666667 L19.3333333,34.6666667 L24,34.6666667 L25.3333333,34.6666667 L31.3333333,34.6666667 L31.3333333,28.6666667 L31.3333333,27.3333333 L31.3333333,22.6666667 L31.3333333,21.3333333 L31.3333333,15.3333333 L25.3333333,15.3333333 L24,15.3333333 Z M19.3333333,16.6666667 L24,16.6666667 L24,21.3333333 L19.3333333,21.3333333 L19.3333333,16.6666667 Z M24,27.3333333 L19.3333333,27.3333333 L19.3333333,22.6666667 L24,22.6666667 L24,27.3333333 Z M13.3333333,22.6666667 L18,22.6666667 L18,27.3333333 L13.3333333,27.3333333 L13.3333333,22.6666667 Z M13.3333333,16.6666667 L18,16.6666667 L18,21.3333333 L13.3333333,21.3333333 L13.3333333,16.6666667 Z M7.33333333,16.6666667 L12,16.6666667 L12,21.3333333 L7.33333333,21.3333333 L7.33333333,16.6666667 Z M7.33333333,22.6666667 L12,22.6666667 L12,27.3333333 L7.33333333,27.3333333 L7.33333333,22.6666667 Z M12,33.3333333 L7.33333333,33.3333333 L7.33333333,28.6666667 L12,28.6666667 L12,33.3333333 Z M18,33.3333333 L13.3333333,33.3333333 L13.3333333,28.6666667 L18,28.6666667 L18,33.3333333 Z M24,33.3333333 L19.3333333,33.3333333 L19.3333333,28.6666667 L24,28.6666667 L24,33.3333333 Z M30,33.3333333 L25.3333333,33.3333333 L25.3333333,28.6666667 L30,28.6666667 L30,33.3333333 Z M30,27.3333333 L25.3333333,27.3333333 L25.3333333,22.6666667 L30,22.6666667 L30,27.3333333 Z M30,16.6666667 L30,21.3333333 L25.3333333,21.3333333 L25.3333333,16.6666667 L30,16.6666667 Z" id="Shape"></path>
            </g>
        </g>
    </g>
</svg>