<?xml version="1.0" encoding="UTF-8"?>
<svg width="54px" height="40px" viewBox="0 0 54 40" version="1.1" xmlns="http://www.w3.org/2000/svg" xmlns:xlink="http://www.w3.org/1999/xlink">
    <!-- Generator: Sketch 51.3 (57544) - http://www.bohemiancoding.com/sketch -->
    <title>id-card</title>
    <desc>Created with Sketch.</desc>
    <defs></defs>
    <g id="Style" stroke="none" stroke-width="1" fill="none" fill-rule="evenodd">
        <g id="Icons" transform="translate(-107.000000, -846.000000)" fill="#000000" fill-rule="nonzero">
            <g id="id-card" transform="translate(107.000000, 846.000000)">
                <path d="M49.5848889,0 L3.74844444,0 C1.68177778,0 0,1.68476098 0,3.75509357 L0,35.4253942 C0,37.4957268 1.68177778,39.1804878 3.74844444,39.1804878 L49.5848889,39.1804878 C51.6515556,39.1804878 53.3333333,37.4957268 53.3333333,35.4253942 L53.3333333,3.75509357 C53.3333333,1.68476098 51.6515556,0 49.5848889,0 Z M51.5555556,35.4253942 C51.5555556,36.5144337 50.672,37.3995565 49.5848889,37.3995565 L3.74844444,37.3995565 C2.66133333,37.3995565 1.77777778,36.5144337 1.77777778,35.4253942 L1.77777778,3.75509357 C1.77777778,2.6660541 2.66133333,1.78093126 3.74844444,1.78093126 L49.5848889,1.78093126 C50.672,1.78093126 51.5555556,2.6660541 51.5555556,3.75509357 L51.5555556,35.4253942 Z" id="Shape"></path>
                <path d="M20.0398699,25.1301102 L16.8455285,23.4845826 L16.8455285,23.1418381 C18.2749919,22.3545001 19.2803577,21.0579164 19.8414309,19.2768851 C20.6922602,18.8216638 21.2357724,17.9351336 21.2357724,16.9414404 L21.2357724,16.0557958 C21.2357724,15.2356889 20.8573333,14.4749202 20.2251382,13.9754166 C19.6772358,10.6276801 17.3609431,8.93078505 13.3333333,8.93078505 C13.1427967,8.93078505 12.9566504,8.9378702 12.7748943,8.95204052 C12.0162602,9.01492128 10.9055285,8.94849794 9.94406504,8.29666352 C9.58494309,8.05222561 9.31362602,7.81487287 9.14065041,7.59434736 C8.84562602,7.21440583 8.34952846,7.08155915 7.90962602,7.26400193 C7.46884553,7.44644472 7.20982114,7.8910383 7.26513821,8.36840073 C7.30201626,8.69963181 7.35733333,9.08488721 7.44074797,9.50733968 C7.61021138,10.3708431 7.61021138,10.3708431 7.37226016,10.8871739 C7.28269919,11.0829014 7.17206504,11.3211398 7.04211382,11.6426288 C6.75147967,12.3608865 6.54513821,13.1473389 6.42660163,13.98693 C5.80318699,14.4873192 5.43089431,15.2436597 5.43089431,16.0557958 L5.43089431,16.9414404 C5.43089431,17.9351336 5.9744065,18.8216638 6.82523577,19.2768851 C7.38630894,21.0588021 8.3916748,22.3553857 9.82113821,23.1418381 L9.82113821,23.4748405 L6.51177236,25.1203681 C5.30357724,25.7846016 4.55284553,27.0599298 4.55284553,28.4486205 L4.55284553,29.6220996 C4.55284553,30.3332722 4.55284553,31.9973984 13.3333333,31.9973984 C22.1138211,31.9973984 22.1138211,30.3332722 22.1138211,29.6220996 L22.1138211,28.5194721 C22.1138211,27.0749857 21.319187,25.7775164 20.0398699,25.1301102 Z M20.3577236,29.4219439 C19.8098211,29.7584889 17.5813333,30.2261092 13.3333333,30.2261092 C9.08533333,30.2261092 6.85684553,29.7584889 6.30894309,29.4219439 L6.30894309,28.4486205 C6.30894309,27.7091073 6.70845528,27.0289322 7.32045528,26.6932729 L10.7070894,25.0096626 C11.2356748,24.7492831 11.5763577,24.1975265 11.5763577,23.603259 L11.5763577,22.0064418 L11.0460163,21.7761742 C9.71401626,21.1969626 8.84826016,20.0925638 8.39869919,18.3983257 L8.27313821,17.9262771 L7.81128455,17.7810314 C7.44426016,17.665012 7.18699187,17.3204962 7.18699187,16.9414404 L7.18699187,16.0557958 C7.18699187,15.7351924 7.36874797,15.4376158 7.66201626,15.2799711 L8.07382114,15.05856 L8.12211382,14.590054 C8.20904065,13.7593193 8.39255285,12.9932368 8.66826016,12.3139474 C8.78504065,12.0261129 8.88426016,11.8109013 8.96504065,11.634658 C9.26269919,10.9899087 9.37069919,10.6569064 9.29606504,9.97407437 C10.3286504,10.5692275 11.5693333,10.8225219 12.9153821,10.7189015 C13.0514797,10.7073881 13.1910894,10.7020742 13.3342114,10.7020742 C16.621626,10.7020742 18.2266992,11.9030083 18.5401626,14.5971391 L18.5946016,15.0594456 L19.0028943,15.2773142 C19.2961626,15.4349589 19.4796748,15.7334211 19.4796748,16.0557958 L19.4796748,16.9414404 C19.4796748,17.3204962 19.2224065,17.665012 18.8545041,17.7801458 L18.3926504,17.9253915 L18.2670894,18.3974401 C17.8175285,20.0916782 16.9517724,21.196077 15.6197724,21.7752885 L15.0894309,22.0064418 L15.0894309,23.6103441 C15.0894309,24.2028403 15.4143089,24.736884 15.9358699,25.0052343 L19.2505041,26.7136428 C19.933626,27.0572729 20.3577236,27.7498469 20.3577236,28.5194721 L20.3577236,29.4219439 Z" id="Shape"></path>
                <path d="M26.8834688,13.7131707 L35.5555556,13.7131707 C36.035122,13.7131707 36.4227642,13.2753288 36.4227642,12.7336585 C36.4227642,12.1919883 36.035122,11.7541463 35.5555556,11.7541463 L26.8834688,11.7541463 C26.4039024,11.7541463 26.0162602,12.1919883 26.0162602,12.7336585 C26.0162602,13.2753288 26.4039024,13.7131707 26.8834688,13.7131707 Z" id="Shape"></path>
                <path d="M39.2411924,13.7131707 L40.1084011,13.7131707 C40.5879675,13.7131707 40.9756098,13.2753288 40.9756098,12.7336585 C40.9756098,12.1919883 40.5879675,11.7541463 40.1084011,11.7541463 L39.2411924,11.7541463 C38.761626,11.7541463 38.3739837,12.1919883 38.3739837,12.7336585 C38.3739837,13.2753288 38.761626,13.7131707 39.2411924,13.7131707 Z" id="Shape"></path>
                <path d="M27.7506775,26.7733333 L26.8834688,26.7733333 C26.4039024,26.7733333 26.0162602,27.2111753 26.0162602,27.7528455 C26.0162602,28.2945158 26.4039024,28.7323577 26.8834688,28.7323577 L27.7506775,28.7323577 C28.2302439,28.7323577 28.6178862,28.2945158 28.6178862,27.7528455 C28.6178862,27.2111753 28.2302439,26.7733333 27.7506775,26.7733333 Z" id="Shape"></path>
                <path d="M32.3577236,26.7733333 L30.7317073,26.7733333 C30.2821138,26.7733333 29.9186992,27.2111753 29.9186992,27.7528455 C29.9186992,28.2945158 30.2821138,28.7323577 30.7317073,28.7323577 L32.3577236,28.7323577 C32.8073171,28.7323577 33.1707317,28.2945158 33.1707317,27.7528455 C33.1707317,27.2111753 32.8073171,26.7733333 32.3577236,26.7733333 Z" id="Shape"></path>
                <path d="M37.5067751,26.7733333 L36.6395664,26.7733333 C36.16,26.7733333 35.7723577,27.2111753 35.7723577,27.7528455 C35.7723577,28.2945158 36.16,28.7323577 36.6395664,28.7323577 L37.5067751,28.7323577 C37.9863415,28.7323577 38.3739837,28.2945158 38.3739837,27.7528455 C38.3739837,27.2111753 37.9863415,26.7733333 37.5067751,26.7733333 Z" id="Shape"></path>
                <path d="M42.7642276,26.7733333 L41.1382114,26.7733333 C40.6886179,26.7733333 40.3252033,27.2111753 40.3252033,27.7528455 C40.3252033,28.2945158 40.6886179,28.7323577 41.1382114,28.7323577 L42.7642276,28.7323577 C43.2138211,28.7323577 43.5772358,28.2945158 43.5772358,27.7528455 C43.5772358,27.2111753 43.2138211,26.7733333 42.7642276,26.7733333 Z" id="Shape"></path>
                <path d="M45.8113821,27.0468575 C45.6347967,27.2331496 45.5284553,27.4904102 45.5284553,27.7466851 C45.5284553,28.00296 45.6347967,28.2592349 45.8113821,28.4465127 C45.9957724,28.6239337 46.2504065,28.7323577 46.504065,28.7323577 C46.7577236,28.7323577 47.0113821,28.6239337 47.196748,28.4465127 C47.3723577,28.2592349 47.4796748,28.00296 47.4796748,27.7466851 C47.4796748,27.4904102 47.3723577,27.2331496 47.196748,27.0468575 C46.8260163,26.6821586 46.1723577,26.6821586 45.8113821,27.0468575 Z" id="Shape"></path>
                <path d="M46.5853659,16.9782114 L26.9105691,16.9782114 C26.4160163,16.9782114 26.0162602,17.4160533 26.0162602,17.9577236 C26.0162602,18.4993938 26.4160163,18.9372358 26.9105691,18.9372358 L46.5853659,18.9372358 C47.0799187,18.9372358 47.4796748,18.4993938 47.4796748,17.9577236 C47.4796748,17.4160533 47.0799187,16.9782114 46.5853659,16.9782114 Z" id="Shape"></path>
                <path d="M46.5853659,22.2022764 L26.9105691,22.2022764 C26.4160163,22.2022764 26.0162602,22.6401184 26.0162602,23.1817886 C26.0162602,23.7234589 26.4160163,24.1613008 26.9105691,24.1613008 L46.5853659,24.1613008 C47.0799187,24.1613008 47.4796748,23.7234589 47.4796748,23.1817886 C47.4796748,22.6401184 47.0799187,22.2022764 46.5853659,22.2022764 Z" id="Shape"></path>
            </g>
        </g>
    </g>
</svg>