<?xml version="1.0" encoding="UTF-8"?>
<svg width="45px" height="40px" viewBox="0 0 45 40" version="1.1" xmlns="http://www.w3.org/2000/svg" xmlns:xlink="http://www.w3.org/1999/xlink">
    <!-- Generator: Sketch 51.3 (57544) - http://www.bohemiancoding.com/sketch -->
    <title>notes</title>
    <desc>Created with Sketch.</desc>
    <defs></defs>
    <g id="Style" stroke="none" stroke-width="1" fill="none" fill-rule="evenodd">
        <g id="Icons" transform="translate(-107.000000, -775.000000)" fill="#000000" fill-rule="nonzero">
            <g id="notes" transform="translate(107.000000, 775.000000)">
                <path d="M24.6462961,27.4109793 C24.3763705,27.6805149 24.1453882,27.9862645 23.9599978,28.3195196 L21.7481795,32.2951268 C21.6077767,32.5475039 21.6519008,32.862307 21.8563742,33.066485 C21.9809752,33.190906 22.1467644,33.2559187 22.3144533,33.2559187 C22.4218709,33.2559187 22.5300657,33.2292756 22.6287621,33.1745235 L26.6102077,30.9659006 C26.9438586,30.7807781 27.2500505,30.5502157 27.5200625,30.2805938 L43.8187845,14.0054192 C44.3411069,13.4837651 44.3411069,12.6350642 43.8187845,12.1134102 L42.8399372,11.1359771 C42.5868496,10.8832551 42.2504356,10.7440899 41.8925209,10.7440899 C41.5346061,10.7440899 41.1981921,10.8832551 40.9451908,11.1359771 L31.7515736,20.3158809 L31.7515736,3.41144492 C31.7515736,1.53038635 30.218973,0 28.3351929,0 L3.41638069,0 C1.53260055,0 0,1.53030012 0,3.41144492 L0,31.0590224 C0,31.4161614 0.289958457,31.7057009 0.647614183,31.7057009 L2.76868015,31.7057009 L2.76868015,39.3533214 C2.76868015,39.7104605 3.05863861,40 3.41629434,40 L31.103873,40 C31.4615287,40 31.7514872,39.7104605 31.7514872,39.3533214 L31.7514872,29.9214717 C31.7514872,29.5643327 31.4615287,29.2747931 31.103873,29.2747931 C30.7462173,29.2747931 30.4562588,29.5643327 30.4562588,29.9214717 L30.4562588,38.7066429 L6.83276137,38.7066429 L6.83276137,37.9711538 C6.83276137,37.6140148 6.54280292,37.3244753 6.18514719,37.3244753 C5.82749146,37.3244753 5.53753301,37.6140148 5.53753301,37.9711538 L5.53753301,38.7066429 L4.06399487,38.7066429 L4.06399487,5.48504125 C4.06399487,5.46046746 4.08394139,5.44054976 4.10855073,5.44054976 L5.53744666,5.44054976 L5.53744666,35.2060426 C5.53744666,35.5631816 5.82740512,35.8527211 6.18506084,35.8527211 C6.54271657,35.8527211 6.83267502,35.5631816 6.83267502,35.2060426 L6.83267502,5.44054976 L26.9507664,5.44054976 C27.3084222,5.44054976 27.5983806,5.15101022 27.5983806,4.79387121 C27.5983806,4.4367322 27.3084222,4.14719266 26.9507664,4.14719266 L6.83276137,4.14719266 L6.83276137,3.41153114 C6.83276137,2.61171911 6.55489171,1.87579892 6.09154535,1.29352955 L28.3352792,1.29352955 C29.5048704,1.29352955 30.4563452,2.2437159 30.4563452,3.41153114 L30.4563452,4.14719266 L29.7194466,4.14719266 C29.3617909,4.14719266 29.0718324,4.4367322 29.0718324,4.79387121 C29.0718324,5.15101022 29.3617909,5.44054976 29.7194466,5.44054976 L30.4563452,5.44054976 L30.4563452,21.6093242 L24.6462961,27.4109793 Z M5.53753301,4.14710644 L4.10863707,4.14710644 C3.36983881,4.14710644 2.76885285,4.74722413 2.76885285,5.48495502 L2.76885285,30.4123438 L1.29522837,30.4123438 L1.29522837,3.41144492 C1.29522837,2.24354345 2.24678947,1.29344333 3.41629434,1.29344333 C4.5857992,1.29344333 5.53744666,2.24354345 5.53744666,3.41144492 L5.53744666,4.14710644 L5.53753301,4.14710644 Z M25.9809858,29.8352479 L23.9810668,30.9446896 L25.0922001,28.94766 C25.1474632,28.8483302 25.2097205,28.7533978 25.2763816,28.6616556 L26.267404,29.6513325 C26.1756154,29.7178973 26.0804593,29.7800646 25.9809858,29.8352479 Z M41.8609173,12.0503806 C41.8641122,12.0471903 41.8739559,12.0373608 41.8923482,12.0373608 C41.9108268,12.0373608 41.9206705,12.0471903 41.9238654,12.0503806 L42.9027126,13.0278136 C42.9201551,13.0451446 42.9201551,13.073426 42.9027126,13.090757 L41.8922618,14.099748 L40.8502938,13.0592853 L41.8609173,12.0503806 Z M39.934481,13.9738613 L40.976449,15.0143239 L27.2087759,28.7621926 L26.1668079,27.7217299 L39.934481,13.9738613 Z" id="Shape"></path>
                <path d="M26.618861,11.1111111 L11.7437121,11.1111111 C11.3943477,11.1111111 11.1111111,11.4253099 11.1111111,11.8128655 C11.1111111,12.2004211 11.3943477,12.5146199 11.7437121,12.5146199 L26.618861,12.5146199 C26.9682254,12.5146199 27.251462,12.2004211 27.251462,11.8128655 C27.251462,11.4253099 26.9682254,11.1111111 26.618861,11.1111111 Z" id="Shape"></path>
                <path d="M26.618861,14.4444444 L11.7437121,14.4444444 C11.3943477,14.4444444 11.1111111,14.7586433 11.1111111,15.1461988 C11.1111111,15.5337544 11.3943477,15.8479532 11.7437121,15.8479532 L26.618861,15.8479532 C26.9682254,15.8479532 27.251462,15.5337544 27.251462,15.1461988 C27.251462,14.7586433 26.9682254,14.4444444 26.618861,14.4444444 Z" id="Shape"></path>
                <path d="M26.618861,18.8888889 L11.7437121,18.8888889 C11.3943477,18.8888889 11.1111111,19.2030877 11.1111111,19.5906433 C11.1111111,19.9781988 11.3943477,20.2923977 11.7437121,20.2923977 L26.618861,20.2923977 C26.9682254,20.2923977 27.251462,19.9781988 27.251462,19.5906433 C27.251462,19.2030877 26.9682254,18.8888889 26.618861,18.8888889 Z" id="Shape"></path>
                <path d="M26.618861,22.2222222 L11.7437121,22.2222222 C11.3943477,22.2222222 11.1111111,22.5364211 11.1111111,22.9239766 C11.1111111,23.3115322 11.3943477,23.625731 11.7437121,23.625731 L26.618861,23.625731 C26.9682254,23.625731 27.251462,23.3115322 27.251462,22.9239766 C27.251462,22.5364211 26.9682254,22.2222222 26.618861,22.2222222 Z" id="Shape"></path>
                <path d="M23.081397,24.4444444 L11.7724042,24.4444444 C11.4071941,24.4444444 11.1111111,24.7586433 11.1111111,25.1461988 C11.1111111,25.5337544 11.4071941,25.8479532 11.7724042,25.8479532 L23.081397,25.8479532 C23.4466071,25.8479532 23.7426901,25.5337544 23.7426901,25.1461988 C23.7426901,24.7586433 23.4466071,24.4444444 23.081397,24.4444444 Z" id="Shape"></path>
            </g>
        </g>
    </g>
</svg>