<?xml version="1.0" encoding="UTF-8"?>
<svg width="37px" height="40px" viewBox="0 0 37 40" version="1.1" xmlns="http://www.w3.org/2000/svg" xmlns:xlink="http://www.w3.org/1999/xlink">
    <!-- Generator: Sketch 51.3 (57544) - http://www.bohemiancoding.com/sketch -->
    <title>pdf</title>
    <desc>Created with Sketch.</desc>
    <defs></defs>
    <g id="Style" stroke="none" stroke-width="1" fill="none" fill-rule="evenodd">
        <g id="Icons" transform="translate(-104.000000, -976.000000)" fill="#000000" fill-rule="nonzero">
            <path d="M130.773942,976.579603 L139.597346,985.940841 L130.773942,985.940841 L130.773942,976.579603 Z M104.809836,1004.99413 C104.363223,1004.99413 104,1004.62352 104,1004.16793 L104,991.737548 C104,991.281959 104.363305,990.911262 104.809836,990.911262 L126.718747,990.911262 C127.16536,990.911262 127.528583,991.281959 127.528583,991.737548 L127.528583,1004.16793 C127.528583,1004.62352 127.165277,1004.99413 126.718747,1004.99413 L104.809836,1004.99413 Z M123.509828,995.076583 L123.509828,994.035529 L118.691005,994.035529 L118.691005,1000.18938 L120.110281,1000.18938 L120.110281,997.574225 L123.044743,997.574225 L123.044743,996.533171 L120.110281,996.533171 L120.110281,995.076583 L123.509828,995.076583 Z M111.650112,994.730244 C111.406977,994.421013 111.105159,994.220194 110.744733,994.127862 C110.51015,994.066306 110.006699,994.035529 109.234304,994.035529 L107.196103,994.035529 L107.196103,1000.18938 L108.466223,1000.18938 L108.466223,997.868031 L109.2944,997.868031 C109.869401,997.868031 110.308517,997.838636 110.611748,997.779846 C110.834876,997.73226 111.054434,997.635053 111.270422,997.488077 C111.48641,997.341174 111.664467,997.138973 111.804665,996.881547 C111.944864,996.624121 112.014926,996.30645 112.014926,995.928679 C112.014852,995.438929 111.893247,995.039475 111.650112,994.730244 Z M110.562362,996.424031 C110.466566,996.561184 110.334251,996.661884 110.165418,996.726277 C109.996584,996.79067 109.661966,996.82283 109.161341,996.82283 L108.466223,996.82283 L108.466223,995.076583 L109.079825,995.076583 C109.537535,995.076583 109.842179,995.090553 109.993758,995.118566 C110.199705,995.154946 110.369952,995.245896 110.504349,995.391417 C110.638821,995.536937 110.706057,995.721676 110.706057,995.945486 C110.706131,996.127387 110.658159,996.286877 110.562362,996.424031 Z M118.455769,995.716728 C118.298945,995.323531 118.070166,994.991235 117.769601,994.719767 C117.469037,994.448298 117.1079,994.259412 116.686447,994.153037 C116.372799,994.074674 115.91694,994.035529 115.319038,994.035529 L112.667476,994.035529 L112.667476,1000.18938 L115.39745,1000.18938 C115.933336,1000.18938 116.36133,1000.14601 116.681519,1000.05921 C117.109599,999.941699 117.449412,999.777988 117.700959,999.568075 C118.034231,999.291004 118.290705,998.928658 118.470466,998.480891 C118.61752,998.114252 118.691005,997.67769 118.691005,997.171206 C118.691005,996.594726 118.612593,996.109924 118.455769,995.716728 Z M117.044185,998.243765 C116.946149,998.519454 116.819568,998.717435 116.664359,998.837707 C116.509149,998.958053 116.313926,999.043401 116.078691,999.093751 C115.899014,999.132969 115.60652,999.152541 115.201378,999.152541 L114.118223,999.152541 L114.118223,995.076583 L114.77007,995.076583 C115.36143,995.076583 115.758502,995.096155 115.96103,995.135373 C116.232201,995.185723 116.456053,995.282276 116.632501,995.425032 C116.808949,995.567788 116.946149,995.766423 117.044185,996.021084 C117.142221,996.275745 117.191239,996.640929 117.191239,997.116708 C117.191239,997.592415 117.142221,997.968076 117.044185,998.243765 Z M140.509853,1014.10936 C140.509853,1015.02138 139.779204,1015.76337 138.881117,1015.76337 L114.553328,1015.76337 C113.655241,1015.76337 112.924592,1015.02063 112.924592,1014.1076 L112.924592,1006.65091 L126.718747,1006.65091 C128.060069,1006.65091 129.151303,1005.53706 129.151303,1004.16793 L129.151303,991.737548 C129.151303,990.368341 128.060069,989.254483 126.718747,989.254483 L112.924592,989.254483 L112.924592,977.661659 C112.924592,976.745349 113.655241,976 114.553328,976 L129.151221,976 L129.151221,986.769231 C129.151221,987.226755 129.514527,987.59762 129.96254,987.59762 L140.509853,987.59762 L140.509853,1014.10936 Z" id="pdf"></path>
        </g>
    </g>
</svg>