<?xml version="1.0" encoding="UTF-8"?>
<svg width="40px" height="40px" viewBox="0 0 40 40" version="1.1" xmlns="http://www.w3.org/2000/svg" xmlns:xlink="http://www.w3.org/1999/xlink">
    <!-- Generator: Sketch 51.3 (57544) - http://www.bohemiancoding.com/sketch -->
    <title>search</title>
    <desc>Created with Sketch.</desc>
    <defs></defs>
    <g id="Style" stroke="none" stroke-width="1" fill="none" fill-rule="evenodd">
        <g id="Icons" transform="translate(-108.000000, -62.000000)" fill="#000000" fill-rule="nonzero">
            <path d="M136.473869,87.1572327 L134.67432,87.1572327 L134.036506,86.539737 C136.268857,83.9325329 137.612824,80.5477416 137.612824,76.8656375 C137.612824,68.6552316 130.984107,62 122.806412,62 C114.628717,62 108,68.6552316 108,76.8656375 C108,85.0760435 114.628717,91.731275 122.806412,91.731275 C126.473846,91.731275 129.845152,90.3819325 132.441969,88.1406518 L133.057005,88.7810177 L133.057005,90.5877644 L144.446552,102 L147.840637,98.5923385 L136.473869,87.1572327 Z M122.806412,87.1572327 C117.134417,87.1572327 112.555819,82.5603202 112.555819,76.8656375 C112.555819,71.1709548 117.134417,66.5740423 122.806412,66.5740423 C128.478407,66.5740423 133.057005,71.1709548 133.057005,76.8656375 C133.057005,82.5603202 128.478407,87.1572327 122.806412,87.1572327 Z" id="search"></path>
        </g>
    </g>
</svg>