<?xml version="1.0" encoding="UTF-8"?>
<svg width="42px" height="42px" viewBox="0 0 42 42" version="1.1" xmlns="http://www.w3.org/2000/svg" xmlns:xlink="http://www.w3.org/1999/xlink">
    <!-- Generator: Sketch 51.3 (57544) - http://www.bohemiancoding.com/sketch -->
    <title>x</title>
    <desc>Created with Sketch.</desc>
    <defs></defs>
    <g id="Style" stroke="none" stroke-width="1" fill="none" fill-rule="evenodd">
        <g id="Icons" transform="translate(-105.000000, -380.000000)" fill="#000000" fill-rule="nonzero">
            <path d="M145.643581,413.453738 C147.45214,415.262297 147.45214,418.194093 145.643581,420.002652 C143.835023,421.81121 140.903226,421.81121 139.094668,420.002652 L126.320465,407.228448 L112.905332,420.643581 C111.096774,422.45214 108.164977,422.45214 106.356419,420.643581 C104.54786,418.835023 104.54786,415.903226 106.356419,414.094668 L119.771552,400.679535 L106.997348,387.905332 C105.188715,386.096698 105.188715,383.162737 106.997348,381.356419 C108.805907,379.54786 111.737703,379.54786 113.546262,381.356419 L126.320465,394.130622 L138.451923,381.999164 C140.260481,380.190606 143.192278,380.190606 145.000836,381.999164 C146.809394,383.807722 146.809394,386.739519 145.000836,388.548077 L132.869378,400.679535 L145.643581,413.453738 Z" id="x"></path>
        </g>
    </g>
</svg>